<mxfile host="app.diagrams.net" modified="2024-07-05T05:10:36.642Z" agent="Mozilla/5.0 (Windows NT 10.0; Win64; x64) AppleWebKit/537.36 (KHTML, like Gecko) Chrome/126.0.0.0 Safari/537.36" etag="vKWkSDOVq8fUbvOy8mCX" version="24.6.4" type="device">
  <diagram id="prtHgNgQTEPvFCAcTncT" name="Page-1">
    <mxGraphModel dx="1034" dy="446" grid="1" gridSize="10" guides="1" tooltips="1" connect="1" arrows="1" fold="1" page="1" pageScale="1" pageWidth="827" pageHeight="1169" math="0" shadow="0">
      <root>
        <mxCell id="0" />
        <mxCell id="1" parent="0" />
        <mxCell id="eGinvNUBDSv-c7p4_jXE-1" value="Customer" style="swimlane;whiteSpace=wrap;html=1;" vertex="1" parent="1">
          <mxGeometry y="10" width="270" height="920" as="geometry" />
        </mxCell>
        <mxCell id="eGinvNUBDSv-c7p4_jXE-6" value="" style="ellipse;html=1;shape=startState;fillColor=#000000;strokeColor=#ff0000;" vertex="1" parent="eGinvNUBDSv-c7p4_jXE-1">
          <mxGeometry x="110" y="30" width="30" height="30" as="geometry" />
        </mxCell>
        <mxCell id="eGinvNUBDSv-c7p4_jXE-9" value="visit the page" style="html=1;align=center;verticalAlign=middle;rounded=1;absoluteArcSize=1;arcSize=10;dashed=0;whiteSpace=wrap;" vertex="1" parent="eGinvNUBDSv-c7p4_jXE-1">
          <mxGeometry x="55" y="90" width="140" height="30" as="geometry" />
        </mxCell>
        <mxCell id="eGinvNUBDSv-c7p4_jXE-10" value="" style="endArrow=open;html=1;rounded=0;align=center;verticalAlign=top;endFill=0;labelBackgroundColor=none;" edge="1" parent="eGinvNUBDSv-c7p4_jXE-1" target="eGinvNUBDSv-c7p4_jXE-13">
          <mxGeometry relative="1" as="geometry">
            <mxPoint x="195" y="104.5" as="sourcePoint" />
            <mxPoint x="310" y="105" as="targetPoint" />
          </mxGeometry>
        </mxCell>
        <mxCell id="eGinvNUBDSv-c7p4_jXE-11" value="" style="resizable=0;html=1;align=left;verticalAlign=bottom;labelBackgroundColor=none;" connectable="0" vertex="1" parent="eGinvNUBDSv-c7p4_jXE-10">
          <mxGeometry x="-1" relative="1" as="geometry" />
        </mxCell>
        <mxCell id="eGinvNUBDSv-c7p4_jXE-12" value="" style="resizable=0;html=1;align=right;verticalAlign=bottom;labelBackgroundColor=none;" connectable="0" vertex="1" parent="eGinvNUBDSv-c7p4_jXE-10">
          <mxGeometry x="1" relative="1" as="geometry" />
        </mxCell>
        <mxCell id="eGinvNUBDSv-c7p4_jXE-23" value="create an account" style="html=1;align=center;verticalAlign=middle;rounded=1;absoluteArcSize=1;arcSize=10;dashed=0;whiteSpace=wrap;" vertex="1" parent="eGinvNUBDSv-c7p4_jXE-1">
          <mxGeometry x="55" y="160" width="140" height="30" as="geometry" />
        </mxCell>
        <mxCell id="eGinvNUBDSv-c7p4_jXE-27" value="enter the credential for login" style="html=1;align=center;verticalAlign=middle;rounded=1;absoluteArcSize=1;arcSize=10;dashed=0;whiteSpace=wrap;" vertex="1" parent="eGinvNUBDSv-c7p4_jXE-1">
          <mxGeometry x="55" y="220" width="140" height="30" as="geometry" />
        </mxCell>
        <mxCell id="eGinvNUBDSv-c7p4_jXE-28" value="" style="endArrow=open;html=1;rounded=0;align=center;verticalAlign=top;endFill=0;labelBackgroundColor=none;endSize=6;exitX=0.455;exitY=1.022;exitDx=0;exitDy=0;exitPerimeter=0;" edge="1" parent="eGinvNUBDSv-c7p4_jXE-1" source="eGinvNUBDSv-c7p4_jXE-27">
          <mxGeometry relative="1" as="geometry">
            <mxPoint x="55" y="290" as="sourcePoint" />
            <mxPoint x="120" y="280" as="targetPoint" />
          </mxGeometry>
        </mxCell>
        <mxCell id="eGinvNUBDSv-c7p4_jXE-30" value="" style="endArrow=open;html=1;rounded=0;align=center;verticalAlign=top;endFill=0;labelBackgroundColor=none;endSize=6;" edge="1" parent="eGinvNUBDSv-c7p4_jXE-1" target="eGinvNUBDSv-c7p4_jXE-32">
          <mxGeometry relative="1" as="geometry">
            <mxPoint x="120" y="280" as="sourcePoint" />
            <mxPoint x="320" y="280" as="targetPoint" />
          </mxGeometry>
        </mxCell>
        <mxCell id="eGinvNUBDSv-c7p4_jXE-41" value="view or search products" style="html=1;align=center;verticalAlign=middle;rounded=1;absoluteArcSize=1;arcSize=10;dashed=0;whiteSpace=wrap;" vertex="1" parent="eGinvNUBDSv-c7p4_jXE-1">
          <mxGeometry x="50" y="390" width="140" height="30" as="geometry" />
        </mxCell>
        <mxCell id="eGinvNUBDSv-c7p4_jXE-45" value="" style="endArrow=open;html=1;rounded=0;align=center;verticalAlign=top;endFill=0;labelBackgroundColor=none;endSize=6;" edge="1" parent="eGinvNUBDSv-c7p4_jXE-1">
          <mxGeometry relative="1" as="geometry">
            <mxPoint x="120" y="440" as="sourcePoint" />
            <mxPoint x="330" y="443.8888888888889" as="targetPoint" />
          </mxGeometry>
        </mxCell>
        <mxCell id="eGinvNUBDSv-c7p4_jXE-54" value="" style="endArrow=open;html=1;rounded=0;align=center;verticalAlign=top;endFill=0;labelBackgroundColor=none;endSize=6;exitX=0;exitY=0.5;exitDx=0;exitDy=0;" edge="1" parent="eGinvNUBDSv-c7p4_jXE-1" source="eGinvNUBDSv-c7p4_jXE-61">
          <mxGeometry relative="1" as="geometry">
            <mxPoint x="80" y="610" as="sourcePoint" />
            <mxPoint x="190" y="565" as="targetPoint" />
            <Array as="points" />
          </mxGeometry>
        </mxCell>
        <mxCell id="eGinvNUBDSv-c7p4_jXE-65" value="place order" style="html=1;align=center;verticalAlign=middle;rounded=1;absoluteArcSize=1;arcSize=10;dashed=0;whiteSpace=wrap;" vertex="1" parent="eGinvNUBDSv-c7p4_jXE-1">
          <mxGeometry x="84" y="555" width="106" height="20" as="geometry" />
        </mxCell>
        <mxCell id="eGinvNUBDSv-c7p4_jXE-56" value="" style="endArrow=open;html=1;rounded=0;align=center;verticalAlign=top;endFill=0;labelBackgroundColor=none;endSize=6;" edge="1" parent="eGinvNUBDSv-c7p4_jXE-1">
          <mxGeometry relative="1" as="geometry">
            <mxPoint x="140" y="575" as="sourcePoint" />
            <mxPoint x="141" y="600" as="targetPoint" />
          </mxGeometry>
        </mxCell>
        <mxCell id="eGinvNUBDSv-c7p4_jXE-68" value="make payment" style="html=1;align=center;verticalAlign=middle;rounded=1;absoluteArcSize=1;arcSize=10;dashed=0;whiteSpace=wrap;" vertex="1" parent="eGinvNUBDSv-c7p4_jXE-1">
          <mxGeometry x="84" y="600" width="106" height="20" as="geometry" />
        </mxCell>
        <mxCell id="eGinvNUBDSv-c7p4_jXE-67" value="" style="endArrow=open;html=1;rounded=0;align=center;verticalAlign=top;endFill=0;labelBackgroundColor=none;endSize=6;" edge="1" parent="eGinvNUBDSv-c7p4_jXE-1">
          <mxGeometry relative="1" as="geometry">
            <mxPoint x="190" y="609.5" as="sourcePoint" />
            <mxPoint x="330" y="610" as="targetPoint" />
          </mxGeometry>
        </mxCell>
        <mxCell id="eGinvNUBDSv-c7p4_jXE-76" value="receive courier" style="html=1;align=center;verticalAlign=middle;rounded=1;absoluteArcSize=1;arcSize=10;dashed=0;whiteSpace=wrap;" vertex="1" parent="eGinvNUBDSv-c7p4_jXE-1">
          <mxGeometry x="84" y="640" width="106" height="20" as="geometry" />
        </mxCell>
        <mxCell id="eGinvNUBDSv-c7p4_jXE-78" value="" style="endArrow=open;html=1;rounded=0;align=center;verticalAlign=top;endFill=0;labelBackgroundColor=none;endSize=6;exitX=0.44;exitY=1.033;exitDx=0;exitDy=0;exitPerimeter=0;" edge="1" parent="eGinvNUBDSv-c7p4_jXE-1" source="eGinvNUBDSv-c7p4_jXE-76">
          <mxGeometry relative="1" as="geometry">
            <mxPoint x="130" y="700" as="sourcePoint" />
            <mxPoint x="131" y="680" as="targetPoint" />
          </mxGeometry>
        </mxCell>
        <mxCell id="eGinvNUBDSv-c7p4_jXE-77" value="" style="endArrow=open;html=1;rounded=0;align=center;verticalAlign=top;endFill=0;labelBackgroundColor=none;endSize=6;" edge="1" parent="eGinvNUBDSv-c7p4_jXE-1">
          <mxGeometry relative="1" as="geometry">
            <mxPoint x="130" y="680" as="sourcePoint" />
            <mxPoint x="590" y="680" as="targetPoint" />
          </mxGeometry>
        </mxCell>
        <mxCell id="eGinvNUBDSv-c7p4_jXE-85" value="" style="endArrow=open;html=1;rounded=0;align=center;verticalAlign=top;endFill=0;labelBackgroundColor=none;endSize=6;" edge="1" parent="eGinvNUBDSv-c7p4_jXE-1" target="eGinvNUBDSv-c7p4_jXE-86">
          <mxGeometry relative="1" as="geometry">
            <mxPoint x="300" y="720" as="sourcePoint" />
            <mxPoint x="170" y="720" as="targetPoint" />
          </mxGeometry>
        </mxCell>
        <mxCell id="eGinvNUBDSv-c7p4_jXE-86" value="send feedback?" style="html=1;align=center;verticalAlign=middle;rounded=1;absoluteArcSize=1;arcSize=10;dashed=0;whiteSpace=wrap;" vertex="1" parent="eGinvNUBDSv-c7p4_jXE-1">
          <mxGeometry x="55" y="710" width="140" height="20" as="geometry" />
        </mxCell>
        <mxCell id="eGinvNUBDSv-c7p4_jXE-87" value="" style="endArrow=open;html=1;rounded=0;align=center;verticalAlign=top;endFill=0;labelBackgroundColor=none;endSize=6;exitX=0.5;exitY=1;exitDx=0;exitDy=0;" edge="1" parent="eGinvNUBDSv-c7p4_jXE-1" source="eGinvNUBDSv-c7p4_jXE-86">
          <mxGeometry relative="1" as="geometry">
            <mxPoint x="120" y="770" as="sourcePoint" />
            <mxPoint x="125" y="750" as="targetPoint" />
          </mxGeometry>
        </mxCell>
        <mxCell id="eGinvNUBDSv-c7p4_jXE-88" value="" style="rhombus;whiteSpace=wrap;html=1;fontColor=#000000;fillColor=#ffffc0;strokeColor=#ff0000;" vertex="1" parent="eGinvNUBDSv-c7p4_jXE-1">
          <mxGeometry x="84" y="750" width="80" height="40" as="geometry" />
        </mxCell>
        <mxCell id="eGinvNUBDSv-c7p4_jXE-89" value="yes" style="edgeStyle=orthogonalEdgeStyle;html=1;align=left;verticalAlign=bottom;endArrow=open;endSize=8;strokeColor=#ff0000;rounded=0;" edge="1" source="eGinvNUBDSv-c7p4_jXE-88" parent="eGinvNUBDSv-c7p4_jXE-1">
          <mxGeometry x="-1" relative="1" as="geometry">
            <mxPoint x="300" y="770" as="targetPoint" />
          </mxGeometry>
        </mxCell>
        <mxCell id="eGinvNUBDSv-c7p4_jXE-90" value="no" style="edgeStyle=orthogonalEdgeStyle;html=1;align=left;verticalAlign=top;endArrow=open;endSize=8;strokeColor=#ff0000;rounded=0;" edge="1" source="eGinvNUBDSv-c7p4_jXE-88" parent="eGinvNUBDSv-c7p4_jXE-1">
          <mxGeometry x="-1" relative="1" as="geometry">
            <mxPoint x="124" y="840" as="targetPoint" />
          </mxGeometry>
        </mxCell>
        <mxCell id="eGinvNUBDSv-c7p4_jXE-92" value="logout" style="html=1;align=center;verticalAlign=middle;rounded=1;absoluteArcSize=1;arcSize=10;dashed=0;whiteSpace=wrap;" vertex="1" parent="eGinvNUBDSv-c7p4_jXE-1">
          <mxGeometry x="84" y="840" width="90" height="20" as="geometry" />
        </mxCell>
        <mxCell id="eGinvNUBDSv-c7p4_jXE-52" value="" style="endArrow=open;html=1;rounded=0;align=center;verticalAlign=top;endFill=0;labelBackgroundColor=none;endSize=6;exitX=0.5;exitY=1;exitDx=0;exitDy=0;" edge="1" parent="eGinvNUBDSv-c7p4_jXE-1" source="eGinvNUBDSv-c7p4_jXE-92">
          <mxGeometry relative="1" as="geometry">
            <mxPoint x="150" y="890" as="sourcePoint" />
            <mxPoint x="130" y="880" as="targetPoint" />
          </mxGeometry>
        </mxCell>
        <mxCell id="eGinvNUBDSv-c7p4_jXE-93" value="" style="ellipse;html=1;shape=endState;fillColor=#000000;strokeColor=#ff0000;" vertex="1" parent="eGinvNUBDSv-c7p4_jXE-1">
          <mxGeometry x="114" y="880" width="30" height="30" as="geometry" />
        </mxCell>
        <mxCell id="eGinvNUBDSv-c7p4_jXE-2" value="System" style="swimlane;whiteSpace=wrap;html=1;" vertex="1" parent="1">
          <mxGeometry x="270" y="10" width="270" height="920" as="geometry" />
        </mxCell>
        <mxCell id="eGinvNUBDSv-c7p4_jXE-13" value="is user registered?" style="html=1;align=center;verticalAlign=middle;rounded=1;absoluteArcSize=1;arcSize=10;dashed=0;whiteSpace=wrap;" vertex="1" parent="eGinvNUBDSv-c7p4_jXE-2">
          <mxGeometry x="50" y="90" width="140" height="30" as="geometry" />
        </mxCell>
        <mxCell id="eGinvNUBDSv-c7p4_jXE-14" value="" style="endArrow=open;html=1;rounded=0;align=center;verticalAlign=top;endFill=0;labelBackgroundColor=none;" edge="1" parent="eGinvNUBDSv-c7p4_jXE-2">
          <mxGeometry x="-1" y="54" relative="1" as="geometry">
            <mxPoint x="119.5" y="120" as="sourcePoint" />
            <mxPoint x="120" y="150" as="targetPoint" />
            <mxPoint x="-4" y="-20" as="offset" />
          </mxGeometry>
        </mxCell>
        <mxCell id="eGinvNUBDSv-c7p4_jXE-15" value="" style="resizable=0;html=1;align=left;verticalAlign=bottom;labelBackgroundColor=none;" connectable="0" vertex="1" parent="eGinvNUBDSv-c7p4_jXE-14">
          <mxGeometry x="-1" relative="1" as="geometry" />
        </mxCell>
        <mxCell id="eGinvNUBDSv-c7p4_jXE-16" value="" style="resizable=0;html=1;align=right;verticalAlign=bottom;labelBackgroundColor=none;" connectable="0" vertex="1" parent="eGinvNUBDSv-c7p4_jXE-14">
          <mxGeometry x="1" relative="1" as="geometry" />
        </mxCell>
        <mxCell id="eGinvNUBDSv-c7p4_jXE-17" value="" style="rhombus;whiteSpace=wrap;html=1;fontColor=#000000;fillColor=#ffffc0;strokeColor=#ff0000;" vertex="1" parent="eGinvNUBDSv-c7p4_jXE-2">
          <mxGeometry x="80" y="150" width="80" height="40" as="geometry" />
        </mxCell>
        <mxCell id="eGinvNUBDSv-c7p4_jXE-19" value="yes" style="edgeStyle=orthogonalEdgeStyle;html=1;align=left;verticalAlign=top;endArrow=open;endSize=8;strokeColor=#ff0000;rounded=0;" edge="1" source="eGinvNUBDSv-c7p4_jXE-17" parent="eGinvNUBDSv-c7p4_jXE-2">
          <mxGeometry x="-1" relative="1" as="geometry">
            <mxPoint x="120" y="220" as="targetPoint" />
          </mxGeometry>
        </mxCell>
        <mxCell id="eGinvNUBDSv-c7p4_jXE-22" value="redirect to login page" style="html=1;align=center;verticalAlign=middle;rounded=1;absoluteArcSize=1;arcSize=10;dashed=0;whiteSpace=wrap;" vertex="1" parent="eGinvNUBDSv-c7p4_jXE-2">
          <mxGeometry x="50" y="220" width="140" height="30" as="geometry" />
        </mxCell>
        <mxCell id="eGinvNUBDSv-c7p4_jXE-24" value="" style="endArrow=open;html=1;rounded=0;align=center;verticalAlign=top;endFill=0;labelBackgroundColor=none;exitX=0.481;exitY=1.267;exitDx=0;exitDy=0;exitPerimeter=0;" edge="1" parent="eGinvNUBDSv-c7p4_jXE-2" target="eGinvNUBDSv-c7p4_jXE-27">
          <mxGeometry relative="1" as="geometry">
            <mxPoint x="49.999999999999915" y="230" as="sourcePoint" />
            <mxPoint x="-67.34" y="230" as="targetPoint" />
          </mxGeometry>
        </mxCell>
        <mxCell id="eGinvNUBDSv-c7p4_jXE-25" value="" style="resizable=0;html=1;align=left;verticalAlign=bottom;labelBackgroundColor=none;" connectable="0" vertex="1" parent="eGinvNUBDSv-c7p4_jXE-24">
          <mxGeometry x="-1" relative="1" as="geometry" />
        </mxCell>
        <mxCell id="eGinvNUBDSv-c7p4_jXE-26" value="" style="resizable=0;html=1;align=right;verticalAlign=bottom;labelBackgroundColor=none;" connectable="0" vertex="1" parent="eGinvNUBDSv-c7p4_jXE-24">
          <mxGeometry x="1" relative="1" as="geometry" />
        </mxCell>
        <mxCell id="eGinvNUBDSv-c7p4_jXE-32" value="are credential valid?" style="html=1;align=center;verticalAlign=middle;rounded=1;absoluteArcSize=1;arcSize=10;dashed=0;whiteSpace=wrap;" vertex="1" parent="eGinvNUBDSv-c7p4_jXE-2">
          <mxGeometry x="50" y="270" width="140" height="20" as="geometry" />
        </mxCell>
        <mxCell id="eGinvNUBDSv-c7p4_jXE-33" value="" style="rhombus;whiteSpace=wrap;html=1;fontColor=#000000;fillColor=#ffffc0;strokeColor=#ff0000;" vertex="1" parent="eGinvNUBDSv-c7p4_jXE-2">
          <mxGeometry x="80" y="320" width="80" height="40" as="geometry" />
        </mxCell>
        <mxCell id="eGinvNUBDSv-c7p4_jXE-34" value="no" style="edgeStyle=orthogonalEdgeStyle;html=1;align=left;verticalAlign=bottom;endArrow=open;endSize=8;strokeColor=#ff0000;rounded=0;entryX=1;entryY=0.5;entryDx=0;entryDy=0;exitX=1;exitY=0.5;exitDx=0;exitDy=0;" edge="1" source="eGinvNUBDSv-c7p4_jXE-33" parent="eGinvNUBDSv-c7p4_jXE-2">
          <mxGeometry x="-1" relative="1" as="geometry">
            <mxPoint x="190" y="230" as="targetPoint" />
            <mxPoint x="190" y="400" as="sourcePoint" />
            <Array as="points">
              <mxPoint x="260" y="340" />
              <mxPoint x="260" y="230" />
            </Array>
          </mxGeometry>
        </mxCell>
        <mxCell id="eGinvNUBDSv-c7p4_jXE-35" value="yes" style="edgeStyle=orthogonalEdgeStyle;html=1;align=left;verticalAlign=top;endArrow=open;endSize=8;strokeColor=#ff0000;rounded=0;" edge="1" source="eGinvNUBDSv-c7p4_jXE-33" parent="eGinvNUBDSv-c7p4_jXE-2">
          <mxGeometry x="-1" relative="1" as="geometry">
            <mxPoint x="120" y="390" as="targetPoint" />
          </mxGeometry>
        </mxCell>
        <mxCell id="eGinvNUBDSv-c7p4_jXE-36" value="" style="endArrow=open;html=1;rounded=0;align=center;verticalAlign=top;endFill=0;labelBackgroundColor=none;endSize=6;" edge="1" parent="eGinvNUBDSv-c7p4_jXE-2">
          <mxGeometry relative="1" as="geometry">
            <mxPoint x="119.5" y="290" as="sourcePoint" />
            <mxPoint x="120" y="320" as="targetPoint" />
          </mxGeometry>
        </mxCell>
        <mxCell id="eGinvNUBDSv-c7p4_jXE-38" value="open product page" style="html=1;align=center;verticalAlign=middle;rounded=1;absoluteArcSize=1;arcSize=10;dashed=0;whiteSpace=wrap;" vertex="1" parent="eGinvNUBDSv-c7p4_jXE-2">
          <mxGeometry x="60" y="390" width="140" height="30" as="geometry" />
        </mxCell>
        <mxCell id="eGinvNUBDSv-c7p4_jXE-39" value="" style="endArrow=open;html=1;rounded=0;align=center;verticalAlign=top;endFill=0;labelBackgroundColor=none;endSize=6;entryX=1;entryY=0.5;entryDx=0;entryDy=0;" edge="1" parent="eGinvNUBDSv-c7p4_jXE-2" target="eGinvNUBDSv-c7p4_jXE-41">
          <mxGeometry relative="1" as="geometry">
            <mxPoint x="60" y="404.5" as="sourcePoint" />
            <mxPoint x="-70" y="405" as="targetPoint" />
          </mxGeometry>
        </mxCell>
        <mxCell id="eGinvNUBDSv-c7p4_jXE-51" value="are products available?" style="html=1;align=center;verticalAlign=middle;rounded=1;absoluteArcSize=1;arcSize=10;dashed=0;whiteSpace=wrap;" vertex="1" parent="eGinvNUBDSv-c7p4_jXE-2">
          <mxGeometry x="60" y="430" width="140" height="30" as="geometry" />
        </mxCell>
        <mxCell id="eGinvNUBDSv-c7p4_jXE-58" value="" style="rhombus;whiteSpace=wrap;html=1;fontColor=#000000;fillColor=#ffffc0;strokeColor=#ff0000;" vertex="1" parent="eGinvNUBDSv-c7p4_jXE-2">
          <mxGeometry x="90" y="490" width="80" height="40" as="geometry" />
        </mxCell>
        <mxCell id="eGinvNUBDSv-c7p4_jXE-59" value="no" style="edgeStyle=orthogonalEdgeStyle;html=1;align=left;verticalAlign=bottom;endArrow=open;endSize=8;strokeColor=#ff0000;rounded=0;" edge="1" source="eGinvNUBDSv-c7p4_jXE-58" parent="eGinvNUBDSv-c7p4_jXE-2">
          <mxGeometry x="-1" relative="1" as="geometry">
            <mxPoint x="210" y="550" as="targetPoint" />
          </mxGeometry>
        </mxCell>
        <mxCell id="eGinvNUBDSv-c7p4_jXE-60" value="yes" style="edgeStyle=orthogonalEdgeStyle;html=1;align=left;verticalAlign=top;endArrow=open;endSize=8;strokeColor=#ff0000;rounded=0;" edge="1" parent="eGinvNUBDSv-c7p4_jXE-2">
          <mxGeometry x="-1" relative="1" as="geometry">
            <mxPoint x="50" y="550" as="targetPoint" />
            <mxPoint x="90" y="510" as="sourcePoint" />
            <Array as="points">
              <mxPoint x="50" y="510" />
            </Array>
          </mxGeometry>
        </mxCell>
        <mxCell id="eGinvNUBDSv-c7p4_jXE-55" value="" style="endArrow=open;html=1;rounded=0;align=center;verticalAlign=top;endFill=0;labelBackgroundColor=none;endSize=6;" edge="1" parent="eGinvNUBDSv-c7p4_jXE-2">
          <mxGeometry relative="1" as="geometry">
            <mxPoint x="129.5" y="461" as="sourcePoint" />
            <mxPoint x="130" y="490" as="targetPoint" />
          </mxGeometry>
        </mxCell>
        <mxCell id="eGinvNUBDSv-c7p4_jXE-61" value="display product" style="html=1;align=center;verticalAlign=middle;rounded=1;absoluteArcSize=1;arcSize=10;dashed=0;whiteSpace=wrap;" vertex="1" parent="eGinvNUBDSv-c7p4_jXE-2">
          <mxGeometry x="4" y="550" width="106" height="30" as="geometry" />
        </mxCell>
        <mxCell id="eGinvNUBDSv-c7p4_jXE-62" value="recommend similar products" style="html=1;align=center;verticalAlign=middle;rounded=1;absoluteArcSize=1;arcSize=10;dashed=0;whiteSpace=wrap;" vertex="1" parent="eGinvNUBDSv-c7p4_jXE-2">
          <mxGeometry x="130" y="550" width="130" height="30" as="geometry" />
        </mxCell>
        <mxCell id="eGinvNUBDSv-c7p4_jXE-69" value="schedule courier shipments" style="html=1;align=center;verticalAlign=middle;rounded=1;absoluteArcSize=1;arcSize=10;dashed=0;whiteSpace=wrap;" vertex="1" parent="eGinvNUBDSv-c7p4_jXE-2">
          <mxGeometry x="60" y="600" width="106" height="30" as="geometry" />
        </mxCell>
        <mxCell id="eGinvNUBDSv-c7p4_jXE-66" value="" style="endArrow=open;html=1;rounded=0;align=center;verticalAlign=top;endFill=0;labelBackgroundColor=none;endSize=6;" edge="1" parent="eGinvNUBDSv-c7p4_jXE-2">
          <mxGeometry relative="1" as="geometry">
            <mxPoint x="166" y="614.5" as="sourcePoint" />
            <mxPoint x="320" y="615" as="targetPoint" />
          </mxGeometry>
        </mxCell>
        <mxCell id="eGinvNUBDSv-c7p4_jXE-84" value="update delivery" style="html=1;align=center;verticalAlign=middle;rounded=1;absoluteArcSize=1;arcSize=10;dashed=0;whiteSpace=wrap;" vertex="1" parent="eGinvNUBDSv-c7p4_jXE-2">
          <mxGeometry x="30" y="710" width="140" height="20" as="geometry" />
        </mxCell>
        <mxCell id="eGinvNUBDSv-c7p4_jXE-91" value="update feedback" style="html=1;align=center;verticalAlign=middle;rounded=1;absoluteArcSize=1;arcSize=10;dashed=0;whiteSpace=wrap;" vertex="1" parent="eGinvNUBDSv-c7p4_jXE-2">
          <mxGeometry x="30" y="760" width="140" height="20" as="geometry" />
        </mxCell>
        <mxCell id="eGinvNUBDSv-c7p4_jXE-3" value="Courier staff" style="swimlane;whiteSpace=wrap;html=1;" vertex="1" parent="1">
          <mxGeometry x="540" y="10" width="270" height="920" as="geometry" />
        </mxCell>
        <mxCell id="eGinvNUBDSv-c7p4_jXE-70" value="pickup courier" style="html=1;align=center;verticalAlign=middle;rounded=1;absoluteArcSize=1;arcSize=10;dashed=0;whiteSpace=wrap;" vertex="1" parent="eGinvNUBDSv-c7p4_jXE-3">
          <mxGeometry x="50" y="600" width="106" height="20" as="geometry" />
        </mxCell>
        <mxCell id="eGinvNUBDSv-c7p4_jXE-72" value="" style="endArrow=open;html=1;rounded=0;align=center;verticalAlign=top;endFill=0;labelBackgroundColor=none;endSize=6;exitX=0.5;exitY=1;exitDx=0;exitDy=0;" edge="1" parent="eGinvNUBDSv-c7p4_jXE-3" source="eGinvNUBDSv-c7p4_jXE-70">
          <mxGeometry relative="1" as="geometry">
            <mxPoint x="90" y="670" as="sourcePoint" />
            <mxPoint x="103" y="640" as="targetPoint" />
          </mxGeometry>
        </mxCell>
        <mxCell id="eGinvNUBDSv-c7p4_jXE-74" value="deliver courier" style="html=1;align=center;verticalAlign=middle;rounded=1;absoluteArcSize=1;arcSize=10;dashed=0;whiteSpace=wrap;" vertex="1" parent="eGinvNUBDSv-c7p4_jXE-3">
          <mxGeometry x="50" y="640" width="106" height="20" as="geometry" />
        </mxCell>
        <mxCell id="eGinvNUBDSv-c7p4_jXE-71" value="" style="endArrow=open;html=1;rounded=0;align=center;verticalAlign=top;endFill=0;labelBackgroundColor=none;endSize=6;exitX=0;exitY=0.5;exitDx=0;exitDy=0;" edge="1" parent="eGinvNUBDSv-c7p4_jXE-3" source="eGinvNUBDSv-c7p4_jXE-74">
          <mxGeometry relative="1" as="geometry">
            <mxPoint x="60" y="710" as="sourcePoint" />
            <mxPoint x="-350" y="650" as="targetPoint" />
          </mxGeometry>
        </mxCell>
        <mxCell id="eGinvNUBDSv-c7p4_jXE-81" value="confirm delivery" style="html=1;align=center;verticalAlign=middle;rounded=1;absoluteArcSize=1;arcSize=10;dashed=0;whiteSpace=wrap;" vertex="1" parent="eGinvNUBDSv-c7p4_jXE-3">
          <mxGeometry x="50" y="670" width="120" height="20" as="geometry" />
        </mxCell>
        <mxCell id="eGinvNUBDSv-c7p4_jXE-83" value="" style="endArrow=open;html=1;rounded=0;align=center;verticalAlign=top;endFill=0;labelBackgroundColor=none;endSize=6;exitX=0.5;exitY=1;exitDx=0;exitDy=0;" edge="1" parent="eGinvNUBDSv-c7p4_jXE-3" source="eGinvNUBDSv-c7p4_jXE-81">
          <mxGeometry relative="1" as="geometry">
            <mxPoint x="120" y="730" as="sourcePoint" />
            <mxPoint x="110" y="720" as="targetPoint" />
          </mxGeometry>
        </mxCell>
        <mxCell id="eGinvNUBDSv-c7p4_jXE-82" value="" style="endArrow=open;html=1;rounded=0;align=center;verticalAlign=top;endFill=0;labelBackgroundColor=none;endSize=6;" edge="1" parent="eGinvNUBDSv-c7p4_jXE-3" target="eGinvNUBDSv-c7p4_jXE-84">
          <mxGeometry relative="1" as="geometry">
            <mxPoint x="110" y="720" as="sourcePoint" />
            <mxPoint x="-100" y="720" as="targetPoint" />
          </mxGeometry>
        </mxCell>
        <mxCell id="eGinvNUBDSv-c7p4_jXE-7" value="" style="edgeStyle=orthogonalEdgeStyle;html=1;verticalAlign=bottom;endArrow=open;endSize=8;strokeColor=#ff0000;rounded=0;" edge="1" source="eGinvNUBDSv-c7p4_jXE-6" parent="1">
          <mxGeometry relative="1" as="geometry">
            <mxPoint x="125" y="100" as="targetPoint" />
          </mxGeometry>
        </mxCell>
        <mxCell id="eGinvNUBDSv-c7p4_jXE-20" style="edgeStyle=orthogonalEdgeStyle;rounded=0;orthogonalLoop=1;jettySize=auto;html=1;entryX=1;entryY=0.25;entryDx=0;entryDy=0;" edge="1" parent="1" source="eGinvNUBDSv-c7p4_jXE-17" target="eGinvNUBDSv-c7p4_jXE-23">
          <mxGeometry relative="1" as="geometry">
            <mxPoint x="200" y="180" as="targetPoint" />
          </mxGeometry>
        </mxCell>
        <mxCell id="eGinvNUBDSv-c7p4_jXE-21" value="no" style="edgeLabel;html=1;align=center;verticalAlign=middle;resizable=0;points=[];" vertex="1" connectable="0" parent="eGinvNUBDSv-c7p4_jXE-20">
          <mxGeometry x="-0.8008" y="-4" relative="1" as="geometry">
            <mxPoint as="offset" />
          </mxGeometry>
        </mxCell>
        <mxCell id="eGinvNUBDSv-c7p4_jXE-47" value="" style="endArrow=open;html=1;rounded=0;align=center;verticalAlign=top;endFill=0;labelBackgroundColor=none;endSize=6;exitX=0.5;exitY=1;exitDx=0;exitDy=0;" edge="1" parent="1" source="eGinvNUBDSv-c7p4_jXE-41">
          <mxGeometry relative="1" as="geometry">
            <mxPoint x="110" y="510" as="sourcePoint" />
            <mxPoint x="120" y="450" as="targetPoint" />
          </mxGeometry>
        </mxCell>
      </root>
    </mxGraphModel>
  </diagram>
</mxfile>
